<svg width="25" height="25" viewBox="0 0 25 25" fill="none" xmlns="http://www.w3.org/2000/svg">
<path d="M7.60871 15.2974C8.51451 15.2974 9.28444 14.9792 9.9185 14.3429C10.5526 13.7065 10.8696 12.9338 10.8696 12.0247C10.8696 11.1156 10.5526 10.3429 9.9185 9.70651C9.28444 9.07014 8.51451 8.75196 7.60871 8.75196C6.70292 8.75196 5.93299 9.07014 5.29893 9.70651C4.66487 10.3429 4.34784 11.1156 4.34784 12.0247C4.34784 12.9338 4.66487 13.7065 5.29893 14.3429C5.93299 14.9792 6.70292 15.2974 7.60871 15.2974ZM7.60871 18.5701C5.79712 18.5701 4.25726 17.9338 2.98915 16.6611C1.72103 15.3883 1.08698 13.8429 1.08698 12.0247C1.08698 10.2065 1.72103 8.66105 2.98915 7.38832C4.25726 6.1156 5.79712 5.47923 7.60871 5.47923C9.07611 5.47923 10.358 5.89741 11.4544 6.73378C12.5507 7.57014 13.316 8.60651 13.75 9.84287H22.8533L25 11.9974L21.1957 16.3611L18.4783 14.2065L16.3044 16.3883L14.1305 14.2065H13.75C13.2971 15.5156 12.5091 16.5701 11.3859 17.3701C10.2627 18.1701 9.00364 18.5701 7.60871 18.5701Z" fill="white"/>
</svg>
