<svg width="28" height="28" viewBox="0 0 28 28" fill="none" xmlns="http://www.w3.org/2000/svg">
<g clip-path="url(#clip0_132_2128)">
<path d="M5.26549 6.43187C5.64817 6.04893 6.16728 5.83364 6.70866 5.83337H10.792C11.4337 5.83337 12.0403 6.13671 12.4253 6.65004L13.4753 8.05004C13.5025 8.08626 13.5377 8.11567 13.5782 8.13592C13.6187 8.15616 13.6634 8.16671 13.7087 8.16671H19.8337C20.1431 8.16671 20.4398 8.28962 20.6586 8.50842C20.8774 8.72721 21.0003 9.02395 21.0003 9.33337V9.91671H7.87533C7.64326 9.91671 7.4207 10.0089 7.25661 10.173C7.09251 10.3371 7.00033 10.5596 7.00033 10.7917C7.00033 11.0238 7.09251 11.2463 7.25661 11.4104C7.4207 11.5745 7.64326 11.6667 7.87533 11.6667H21.8497C22.0145 11.6666 22.1774 11.7013 22.3278 11.7688C22.4782 11.8362 22.6127 11.9347 22.7222 12.0578C22.8318 12.1809 22.914 12.3259 22.9635 12.4831C23.013 12.6403 23.0286 12.8062 23.0093 12.9699L22.167 20.125C22.167 20.6665 21.9519 21.1858 21.569 21.5687C21.1861 21.9516 20.6668 22.1667 20.1253 22.1667H6.70866C6.16718 22.1667 5.64787 21.9516 5.26498 21.5687C4.8821 21.1858 4.66699 20.6665 4.66699 20.125V7.87504C4.66699 7.33371 4.88166 6.81337 5.26549 6.43187Z" fill="white"/>
</g>
<defs>
<clipPath id="clip0_132_2128">
<rect width="18.6667" height="18.6667" fill="white" transform="translate(4.66699 4.66669)"/>
</clipPath>
</defs>
</svg>
