<svg width="34" height="34" viewBox="0 0 34 34" fill="none" xmlns="http://www.w3.org/2000/svg">
<g clip-path="url(#clip0_2057_1398)">
<path d="M12.3048 30.3849C12.4266 30.5169 12.4914 30.6916 12.485 30.8711C12.4787 31.0506 12.4018 31.2204 12.271 31.3435L10.8006 32.7184C10.6693 32.8404 10.4949 32.9053 10.3158 32.8988C10.1367 32.8923 9.96753 32.815 9.84538 32.6839L1.28235 23.4554C1.16066 23.3233 1.09603 23.1485 1.10249 22.969C1.10896 22.7895 1.186 22.6198 1.31687 22.4968L2.78929 21.1239C2.85426 21.0634 2.93051 21.0163 3.01369 20.9853C3.09687 20.9543 3.18534 20.94 3.27405 20.9432C3.36276 20.9464 3.44997 20.9671 3.53069 21.004C3.61141 21.0409 3.68406 21.0934 3.7445 21.1584L12.3048 30.3849ZM23.2312 13.0205C23.3529 13.1526 23.4175 13.3274 23.411 13.5069C23.4046 13.6864 23.3275 13.8561 23.1966 13.9791L13.9424 22.6241C13.8111 22.746 13.6368 22.8109 13.4577 22.8045C13.2786 22.798 13.1094 22.7207 12.9872 22.5895L10.7783 20.2059C10.6566 20.0738 10.5919 19.899 10.5984 19.7195C10.6049 19.54 10.6819 19.3703 10.8128 19.2473L20.065 10.6024C20.1299 10.5419 20.2061 10.4948 20.2892 10.4638C20.3723 10.4328 20.4607 10.4185 20.5494 10.4218C20.638 10.425 20.7252 10.4456 20.8059 10.4825C20.8865 10.5194 20.9591 10.5719 21.0195 10.6369L23.2312 13.0205ZM15.4534 27.4421C15.7066 27.7149 15.691 28.1461 15.4189 28.4007L13.9465 29.7749C13.8815 29.8354 13.8053 29.8825 13.7221 29.9135C13.6389 29.9445 13.5504 29.9588 13.4617 29.9556C13.373 29.9524 13.2858 29.9317 13.2051 29.8948C13.1244 29.8579 13.0517 29.8054 12.9913 29.7404L4.43298 20.5119C4.31121 20.3799 4.24646 20.2051 4.25279 20.0256C4.25913 19.8462 4.33605 19.6764 4.46683 19.5533L5.93654 18.1797C6.06784 18.0577 6.24219 17.9929 6.42129 17.9993C6.60039 18.0058 6.7696 18.0831 6.89175 18.2143L15.4534 27.4421ZM29.7125 13.3516C29.8341 13.4838 29.8986 13.6586 29.892 13.8381C29.8854 14.0176 29.8083 14.1872 29.6773 14.3102L28.2056 15.6844C28.0742 15.8065 27.8998 15.8715 27.7206 15.8652C27.5414 15.8588 27.372 15.7817 27.2497 15.6506L18.69 6.42409C18.5681 6.29215 18.5032 6.11737 18.5096 5.93782C18.5159 5.75828 18.5929 5.58851 18.7239 5.4655L20.1997 4.08786C20.2646 4.02739 20.3408 3.98032 20.4239 3.94933C20.507 3.91834 20.5955 3.90403 20.6841 3.90724C20.7728 3.91045 20.8599 3.9311 20.9406 3.96802C21.0212 4.00493 21.0938 4.05739 21.1542 4.12238L29.7125 13.3516ZM32.8564 10.4135C32.9779 10.5458 33.0425 10.7207 33.036 10.9002C33.0296 11.0798 32.9526 11.2495 32.8219 11.3728L31.3528 12.7463C31.2879 12.8069 31.2118 12.854 31.1287 12.885C31.0456 12.9161 30.9572 12.9304 30.8685 12.9273C30.7799 12.9241 30.6927 12.9036 30.612 12.8667C30.5313 12.8298 30.4587 12.7774 30.3983 12.7125L21.84 3.48197C21.7183 3.34975 21.6537 3.17493 21.66 2.99538C21.6664 2.81583 21.7432 2.64601 21.8738 2.52269L23.3442 1.14641C23.409 1.08584 23.4851 1.03866 23.5681 1.00757C23.6512 0.976477 23.7396 0.962092 23.8282 0.965237C23.9168 0.968382 24.0039 0.988995 24.0846 1.02589C24.1652 1.06279 24.2378 1.11525 24.2981 1.18026L32.8564 10.4135Z" fill="#5F5F5F"/>
</g>
<defs>
<clipPath id="clip0_2057_1398">
<rect width="33.8487" height="33.8487" fill="white" transform="translate(0.14502 0.00637817)"/>
</clipPath>
</defs>
</svg>
