<svg width="33" height="35" viewBox="0 0 33 35" fill="none" xmlns="http://www.w3.org/2000/svg">
<path d="M16.4998 3.44077C13.8329 3.44599 11.2251 4.25012 8.99395 5.75523C6.7628 7.26033 5.00462 9.40145 3.93356 11.9178C2.86249 14.4341 2.52478 17.217 2.96155 19.9276C3.39832 22.6381 4.59072 25.1593 6.39351 27.1841L6.51726 27.3258C7.80214 28.7233 9.34998 29.8364 11.0663 30.5971C12.7826 31.3578 14.6314 31.7501 16.4998 31.7501C18.3681 31.7501 20.2169 31.3578 21.9332 30.5971C23.6495 29.8364 25.1974 28.7233 26.4823 27.3258L26.606 27.1841C28.4088 25.1593 29.6012 22.6381 30.038 19.9276C30.4747 17.217 30.137 14.4341 29.066 11.9178C27.9949 9.40145 26.2367 7.26033 24.0056 5.75523C21.7744 4.25012 19.1666 3.44599 16.4998 3.44077ZM7.71351 24.3933C6.27705 22.4406 5.49959 20.0576 5.49959 17.6074C5.49959 15.1573 6.27705 12.7743 7.71351 10.8216C8.73291 11.6139 9.5599 12.6391 10.1294 13.8167C10.6988 14.9942 10.9952 16.2918 10.9952 17.6074C10.9952 18.923 10.6988 20.2207 10.1294 21.3982C9.5599 22.5757 8.73291 23.601 7.71351 24.3933ZM16.4998 28.9408C13.9963 28.9451 11.568 28.0594 9.62476 26.4333C10.9046 25.3711 11.9371 24.0269 12.6465 22.4996C13.3559 20.9723 13.7241 19.3006 13.7241 17.6074C13.7241 15.9142 13.3559 14.2426 12.6465 12.7153C11.9371 11.1879 10.9046 9.84379 9.62476 8.7816C11.5704 7.15996 13.9972 6.27526 16.4998 6.27526C19.0023 6.27526 21.4291 7.15996 23.3748 8.7816C22.095 9.84379 21.0624 11.1879 20.3531 12.7153C19.6437 14.2426 19.2754 15.9142 19.2754 17.6074C19.2754 19.3006 19.6437 20.9723 20.3531 22.4996C21.0624 24.0269 22.095 25.3711 23.3748 26.4333C21.4315 28.0594 19.0032 28.9451 16.4998 28.9408ZM25.286 24.3933C24.2666 23.601 23.4396 22.5757 22.8702 21.3982C22.3007 20.2207 22.0043 18.923 22.0043 17.6074C22.0043 16.2918 22.3007 14.9942 22.8702 13.8167C23.4396 12.6391 24.2666 11.6139 25.286 10.8216C26.7225 12.7743 27.4999 15.1573 27.4999 17.6074C27.4999 20.0576 26.7225 22.4406 25.286 24.3933Z" fill="#5F5F5F"/>
</svg>
