<svg width="25" height="25" viewBox="0 0 25 25" fill="none" xmlns="http://www.w3.org/2000/svg">
<path d="M10.9709 3.18081C11.351 2.96139 11.7821 2.84587 12.2209 2.84587C12.6598 2.84587 13.0909 2.96139 13.4709 3.18081L19.7649 6.81381C20.145 7.03322 20.4606 7.34881 20.68 7.72884C20.8994 8.10888 21.0149 8.53998 21.0149 8.97881V16.2468C21.0149 16.6856 20.8994 17.1167 20.68 17.4968C20.4606 17.8768 20.145 18.1924 19.7649 18.4118L13.4709 22.0458C13.0909 22.2652 12.6598 22.3807 12.2209 22.3807C11.7821 22.3807 11.351 22.2652 10.9709 22.0458L4.67694 18.4118C4.2969 18.1924 3.98131 17.8768 3.76189 17.4968C3.54247 17.1167 3.42695 16.6856 3.42694 16.2468V8.97981C3.42678 8.54081 3.54221 8.1095 3.76164 7.72928C3.98107 7.34905 4.29676 7.03331 4.67694 6.81381L10.9709 3.18081ZM12.2209 9.61381C11.4253 9.61381 10.6622 9.92988 10.0996 10.4925C9.53701 11.0551 9.22094 11.8182 9.22094 12.6138C9.22094 13.4095 9.53701 14.1725 10.0996 14.7351C10.6622 15.2977 11.4253 15.6138 12.2209 15.6138C13.0166 15.6138 13.7797 15.2977 14.3423 14.7351C14.9049 14.1725 15.2209 13.4095 15.2209 12.6138C15.2209 11.8182 14.9049 11.0551 14.3423 10.4925C13.7797 9.92988 13.0166 9.61381 12.2209 9.61381Z" fill="white"/>
</svg>
