<svg width="33" height="34" viewBox="0 0 33 34" fill="none" xmlns="http://www.w3.org/2000/svg">
<path d="M2.75 29.4824V26.7324C3.62083 26.7324 4.27396 26.5033 4.70937 26.0449C5.14479 25.5866 6.00417 25.3574 7.2875 25.3574C8.57083 25.3574 9.45312 25.5866 9.93437 26.0449C10.4156 26.5033 11.0687 26.7324 11.8937 26.7324C12.7187 26.7324 13.3719 26.5033 13.8531 26.0449C14.3344 25.5866 15.2167 25.3574 16.5 25.3574C17.7833 25.3574 18.6656 25.5866 19.1469 26.0449C19.6281 26.5033 20.2812 26.7324 21.1063 26.7324C21.9312 26.7324 22.5844 26.5033 23.0656 26.0449C23.5469 25.5866 24.4292 25.3574 25.7125 25.3574C26.9958 25.3574 27.8552 25.5866 28.2906 26.0449C28.726 26.5033 29.3792 26.7324 30.25 26.7324V29.4824C28.8979 29.4824 28.0101 29.2533 27.5866 28.7949C27.1631 28.3366 26.5384 28.1074 25.7125 28.1074C24.8866 28.1074 24.2335 28.3366 23.7531 28.7949C23.2728 29.2533 22.3905 29.4824 21.1063 29.4824C19.822 29.4824 18.9397 29.2533 18.4594 28.7949C17.979 28.3366 17.3259 28.1074 16.5 28.1074C15.6741 28.1074 15.021 28.3366 14.5406 28.7949C14.0603 29.2533 13.178 29.4824 11.8937 29.4824C10.6095 29.4824 9.72721 29.2533 9.24687 28.7949C8.76654 28.3366 8.11342 28.1074 7.2875 28.1074C6.46158 28.1074 5.83687 28.3366 5.41338 28.7949C4.98988 29.2533 4.10208 29.4824 2.75 29.4824ZM2.75 23.2949V20.5449C3.62083 20.5449 4.27396 20.3158 4.70937 19.8574C5.14479 19.3991 6.00417 19.1699 7.2875 19.1699C8.57083 19.1699 9.45908 19.3991 9.95225 19.8574C10.4454 20.3158 11.0926 20.5449 11.8937 20.5449C12.7187 20.5449 13.3719 20.3158 13.8531 19.8574C14.3344 19.3991 15.2167 19.1699 16.5 19.1699C17.7833 19.1699 18.6656 19.3991 19.1469 19.8574C19.6281 20.3158 20.2812 20.5449 21.1063 20.5449C21.9312 20.5449 22.5844 20.3158 23.0656 19.8574C23.5469 19.3991 24.4292 19.1699 25.7125 19.1699C26.9958 19.1699 27.8552 19.3991 28.2906 19.8574C28.726 20.3158 29.3792 20.5449 30.25 20.5449V23.2949C28.8979 23.2949 28.0101 23.0658 27.5866 22.6074C27.1631 22.1491 26.5384 21.9199 25.7125 21.9199C24.8866 21.9199 24.2504 22.1491 23.804 22.6074C23.3576 23.0658 22.4583 23.2949 21.1063 23.2949C19.8 23.2949 18.9122 23.0658 18.4429 22.6074C17.9735 22.1491 17.3259 21.9199 16.5 21.9199C15.6292 21.9199 14.982 22.1491 14.5585 22.6074C14.135 23.0658 13.2467 23.2949 11.8937 23.2949C10.5407 23.2949 9.64104 23.0658 9.19462 22.6074C8.74821 22.1491 8.1125 21.9199 7.2875 21.9199C6.4625 21.9199 5.83825 22.1491 5.41475 22.6074C4.99125 23.0658 4.103 23.2949 2.75 23.2949ZM9.4875 16.2824L14.0594 11.7105L12.6844 10.3355C11.9281 9.5793 11.126 9.0293 10.2781 8.68555C9.43021 8.3418 8.3875 8.16992 7.15 8.16992V4.73242C8.86875 4.73242 10.2896 4.92172 11.4125 5.3003C12.5354 5.67888 13.6354 6.40626 14.7125 7.48242L23.5125 16.2824C23.1229 16.5345 22.7448 16.7353 22.3781 16.8847C22.0115 17.0341 21.5875 17.1083 21.1063 17.1074C20.2812 17.1074 19.6281 16.8783 19.1469 16.4199C18.6656 15.9616 17.7833 15.7324 16.5 15.7324C15.2167 15.7324 14.3344 15.9616 13.8531 16.4199C13.3719 16.8783 12.7187 17.1074 11.8937 17.1074C11.4125 17.1074 10.9885 17.0332 10.6219 16.8847C10.2552 16.7362 9.87708 16.5354 9.4875 16.2824ZM22.9625 4.73242C23.925 4.73242 24.7385 5.07067 25.4031 5.74717C26.0677 6.42367 26.4 7.23126 26.4 8.16992C26.4 9.13242 26.0677 9.94597 25.4031 10.6105C24.7385 11.2751 23.925 11.6074 22.9625 11.6074C22 11.6074 21.1865 11.2751 20.5219 10.6105C19.8573 9.94597 19.525 9.13242 19.525 8.16992C19.525 7.23034 19.8573 6.4223 20.5219 5.7458C21.1865 5.0693 22 4.73151 22.9625 4.73242Z" fill="#5F5F5F"/>
</svg>
